<?xml version="1.0" encoding="UTF-8"?>
<svg version="1.1" xmlns="http://www.w3.org/2000/svg" width="1024" height="1024">
<path d="M0 0 C0.33 1.32 0.66 2.64 1 4 C2.32 3.01 3.64 2.02 5 1 C5 1.99 5 2.98 5 4 C6.01835937 3.9278125 7.03671875 3.855625 8.0859375 3.78125 C16.03836283 3.24811592 23.9659509 2.89444676 31.9375 2.875 C32.71206543 2.87048828 33.48663086 2.86597656 34.28466797 2.86132812 C39.75204416 2.87602208 39.75204416 2.87602208 42 4 C42.33 3.34 42.66 2.68 43 2 C43 2.66 43 3.32 43 4 C46.95121228 3.88182083 50.90218229 3.75757767 54.85302734 3.62768555 C56.85894807 3.56301749 58.86502228 3.50316894 60.87109375 3.44335938 C62.75634766 3.38051758 62.75634766 3.38051758 64.6796875 3.31640625 C65.84226074 3.27974854 67.00483398 3.24309082 68.20263672 3.20532227 C70.9535501 3.18178341 70.9535501 3.18178341 73 2 C73 2.66 73 3.32 73 4 C73.55034912 3.83701416 74.10069824 3.67402832 74.66772461 3.50610352 C77.28591714 2.93795601 79.63767348 2.88715422 82.31640625 2.90234375 C83.32767578 2.90556641 84.33894531 2.90878906 85.38085938 2.91210938 C86.43080078 2.92048828 87.48074219 2.92886719 88.5625 2.9375 C90.14321289 2.94426758 90.14321289 2.94426758 91.75585938 2.95117188 C93.70777511 2.95989135 95.65968352 2.9706625 97.61157227 2.98413086 C100.57010324 3.00378787 103.19986124 2.96402498 106.125 2.4375 C107.07375 2.293125 108.0225 2.14875 109 2 C109.495 2.495 109.495 2.495 110 3 C111.66037691 3.09940131 113.3249328 3.13080137 114.98828125 3.1328125 C116.51291992 3.13474609 116.51291992 3.13474609 118.06835938 3.13671875 C119.13892578 3.13285156 120.20949219 3.12898438 121.3125 3.125 C122.37146484 3.12886719 123.43042969 3.13273437 124.52148438 3.13671875 C125.54177734 3.13542969 126.56207031 3.13414062 127.61328125 3.1328125 C128.54954346 3.13168457 129.48580566 3.13055664 130.45043945 3.12939453 C132.78720856 3.01079953 134.75922781 2.63840928 137 2 C138.67803955 2 140.33365036 2.24945707 142 2.4375 C142.80308594 2.52773438 143.60617187 2.61796875 144.43359375 2.7109375 C145.28050781 2.80632812 146.12742187 2.90171875 147 3 C148.68746903 3.18777851 150.37496741 3.37529353 152.0625 3.5625 C153.361875 3.706875 154.66125 3.85125 156 4 C156.33 3.34 156.66 2.68 157 2 C157.680625 2.185625 158.36125 2.37125 159.0625 2.5625 C162.57232191 3.08523943 165.52188063 2.61378577 169 2 C169 2.33 169 2.66 169 3 C176.08413941 3.02529271 183.16826723 3.04284261 190.25244141 3.05493164 C192.66390417 3.05996974 195.07536386 3.06680034 197.48681641 3.07543945 C200.94694779 3.08752787 204.4070389 3.09323344 207.8671875 3.09765625 C208.95055389 3.10281754 210.03392029 3.10797882 211.15011597 3.11329651 C212.1510025 3.11337204 213.15188904 3.11344757 214.18310547 3.11352539 C215.06690887 3.115746 215.95071228 3.11796661 216.86129761 3.12025452 C219.05276775 3.13873944 219.05276775 3.13873944 221 2 C221 2.66 221 3.32 221 4 C221.59166962 3.98747192 222.18333923 3.97494385 222.79293823 3.96203613 C228.99051357 3.83101514 235.18811855 3.70146974 241.38574219 3.57275391 C243.69401823 3.52462445 246.00228664 3.47612767 248.31054688 3.42724609 C251.64190734 3.35676394 254.97329364 3.28763379 258.3046875 3.21875 C259.834991 3.18593933 259.834991 3.18593933 261.39620972 3.15246582 C264.26407609 3.09389284 267.1318744 3.04395017 270 3 C271.4258139 2.97595093 271.4258139 2.97595093 272.88043213 2.95141602 C273.77985535 2.94231201 274.67927856 2.93320801 275.60595703 2.92382812 C276.40534698 2.91420044 277.20473694 2.90457275 278.02835083 2.89465332 C280 3 280 3 282 4 C282 3.34 282 2.68 282 2 C282.84797905 2.24447876 282.84797905 2.24447876 283.71308899 2.49389648 C286.09089439 3.02011533 288.15788343 3.11373026 290.59057617 3.09765625 C291.49639938 3.09435303 292.4022226 3.0910498 293.335495 3.08764648 C294.7994445 3.07519897 294.7994445 3.07519897 296.29296875 3.0625 C297.31240067 3.05871338 298.33183258 3.05492676 299.38215637 3.05102539 C303.73130335 3.03477581 308.08035514 3.00700355 312.42944336 2.97949219 C325.33024338 2.90490407 338.13282482 3.01115113 351 4 C351 3.34 351 2.68 351 2 C352.41925781 2.24363281 352.41925781 2.24363281 353.8671875 2.4921875 C358.61741348 3.16874208 363.33504559 3.1462258 368.125 3.125 C369.00542969 3.12886719 369.88585937 3.13273437 370.79296875 3.13671875 C375.01983037 3.13034339 378.86116726 2.93739398 383 2 C384.2065625 2.2475 384.2065625 2.2475 385.4375 2.5 C388.53210576 3.10382551 390.91075999 2.52582809 394 2 C394.59127686 2.15194824 395.18255371 2.30389648 395.79174805 2.46044922 C398.65870778 3.16094463 401.31870732 3.12980737 404.26953125 3.1328125 C406.09774414 3.13474609 406.09774414 3.13474609 407.96289062 3.13671875 C409.23326172 3.13285156 410.50363281 3.12898438 411.8125 3.125 C413.07126953 3.12886719 414.33003906 3.13273437 415.62695312 3.13671875 C416.84962891 3.13542969 418.07230469 3.13414062 419.33203125 3.1328125 C420.44296143 3.13168457 421.5538916 3.13055664 422.69848633 3.12939453 C426.10414935 3.0552418 426.10414935 3.0552418 429.85424805 2.42919922 C431.41139526 2.21674561 431.41139526 2.21674561 433 2 C433.33 2.33 433.66 2.66 434 3 C435.51469448 3.23192865 437.03754562 3.41215238 438.5625 3.5625 C439.80193359 3.68818359 439.80193359 3.68818359 441.06640625 3.81640625 C441.70449219 3.87699219 442.34257813 3.93757813 443 4 C443 3.34 443 2.68 443 2 C443.66 2.33 444.32 2.66 445 3 C445.33 2.67 445.66 2.34 446 2 C449 1.875 449 1.875 452 2 C452.33 2.33 452.66 2.66 453 3 C455.96740378 3.13488199 458.59617379 3.0908609 461.5 2.4375 C464.57521196 1.89933791 466.92959155 2.45816322 470 3 C472.67360729 3.09149226 475.32317114 3.04388244 478 3 C478.99 3 479.98 3 481 3 C483.02534608 2.69783143 485.04386121 2.36752366 487.0625 2.0234375 C489 2 489 2 492 4 C492.33 3.34 492.66 2.68 493 2 C493 2.66 493 3.32 493 4 C494.65 4 496.3 4 498 4 C498.33 3.34 498.66 2.68 499 2 C499.99 2.66 500.98 3.32 502 4 C502.33 3.01 502.66 2.02 503 1 C504.175625 1.495 504.175625 1.495 505.375 2 C510.00483253 3.27719518 514.23390883 3.14765859 519 3 C525 3 531 3 537 3 C537.70125 2.814375 538.4025 2.62875 539.125 2.4375 C539.74375 2.293125 540.3625 2.14875 541 2 C541.33 2.33 541.66 2.66 542 3 C542 2.67 542 2.34 542 2 C543.41655793 1.9727585 544.83327045 1.95349533 546.25 1.9375 C547.03890625 1.92589844 547.8278125 1.91429687 548.640625 1.90234375 C551 2 551 2 552.78515625 2.49609375 C556.22393565 3.27846155 559.67986559 3.14370738 563.1875 3.125 C564.29254883 3.13080078 564.29254883 3.13080078 565.41992188 3.13671875 C569.0054406 3.46282087 569.0054406 3.46282087 572 2 C579.14527568 1.76572867 579.14527568 1.76572867 581.82421875 2.5 C584.8999914 3.20682028 587.84844114 3.13167703 591 3.125 C592.216875 3.12757813 593.43375 3.13015625 594.6875 3.1328125 C597.85095904 3.12025863 597.85095904 3.12025863 600.25 2.4296875 C602 2 602 2 605 3 C607.84515178 3.12234153 610.65503213 3.18512524 613.5 3.1875 C614.27214844 3.19974609 615.04429687 3.21199219 615.83984375 3.22460938 C619.7482648 3.23476991 621.67641928 3.21572048 625 1 C625 1.66 625 2.32 625 3 C629.29 3 633.58 3 638 3 C637.34 2.34 636.68 1.68 636 1 C640.73684211 1.92105263 640.73684211 1.92105263 642.875 2.5625 C645.2301604 3.12183197 645.2301604 3.12183197 648.625 3 C652 3 652 3 654 4 C654.33 3.34 654.66 2.68 655 2 C655.928125 2.2784375 655.928125 2.2784375 656.875 2.5625 C659.04160178 3.23686176 659.04160178 3.23686176 661 2 C661 2.66 661 3.32 661 4 C662.98 4 664.96 4 667 4 C667 3.34 667 2.68 667 2 C667.66 2 668.32 2 669 2 C669 2.66 669 3.32 669 4 C669.845625 3.9278125 670.69125 3.855625 671.5625 3.78125 C681.96468951 2.93016177 681.96468951 2.93016177 686.6875 3 C689.87887965 3.24689917 689.87887965 3.24689917 692 2 C692.99 2.33 693.98 2.66 695 3 C695.99 3 696.98 3 698 3 C700.39653619 3.15623519 702.79231902 3.3242069 705.1875 3.5 C706.45980469 3.5928125 707.73210938 3.685625 709.04296875 3.78125 C710.50669922 3.88953125 710.50669922 3.88953125 712 4 C712 3.01 712 2.02 712 1 C712.66 1.33 713.32 1.66 714 2 C714.33 2.99 714.66 3.98 715 5 C715.33 5.66 715.66 6.32 716 7 C715.34 7 714.68 7 714 7 C714 14.59 714 22.18 714 30 C714.66 30.33 715.32 30.66 716 31 C715.34 31 714.68 31 714 31 C714.03552979 31.94319092 714.07105957 32.88638184 714.10766602 33.8581543 C714.23719613 37.37103684 714.36145079 40.88402493 714.48217773 44.3972168 C714.5354146 45.91519561 714.59072853 47.4331031 714.64819336 48.95092773 C714.73061847 51.13770169 714.80547122 53.32462666 714.87890625 55.51171875 C714.9260376 56.82615967 714.97316895 58.14060059 715.02172852 59.49487305 C715.00297596 62.51993425 714.72984472 65.07816374 714 68 C714.66 68.33 715.32 68.66 716 69 C715.83701416 70.08903122 715.67402832 71.17806244 715.50610352 72.3000946 C714.84793599 77.60256147 714.87531374 82.86219377 714.90234375 88.19848633 C714.90380402 89.29389236 714.90526428 90.3892984 714.9067688 91.51789856 C714.91056092 93.88592292 714.91666274 96.25394448 714.92483521 98.62195778 C714.93765275 102.37677706 714.94412854 106.1315608 714.94897461 109.88639832 C714.96134806 118.53759752 714.98300079 127.18876505 715.00520325 135.83994293 C715.02706863 144.39966098 715.04490783 152.95936916 715.05593872 161.51910973 C715.06238776 165.20537488 715.0748965 168.89158715 715.08764648 172.57783508 C715.09128197 174.85633296 715.09463333 177.13483131 715.09765625 179.41333008 C715.10540573 180.93413177 715.10540573 180.93413177 715.11331177 182.48565674 C715.11379182 189.04182963 714.70211227 195.48189873 714 202 C712.06263299 202.16820551 710.12510094 202.33451095 708.1875 202.5 C707.10855469 202.5928125 706.02960937 202.685625 704.91796875 202.78125 C699.3911525 203.19557625 699.3911525 203.19557625 697 202 C697 202.66 697 203.32 697 204 C696.34 203.67 695.68 203.34 695 203 C692.1786928 202.92765879 689.38275002 202.90722481 686.5625 202.9375 C685.39750977 202.94426758 685.39750977 202.94426758 684.20898438 202.95117188 C682.13929654 202.96365061 680.06964313 202.98153936 678 203 C677.01 203 676.02 203 675 203 C674.67 203.33 674.34 203.66 674 204 C671 204.125 671 204.125 668 204 C667.67 203.67 667.34 203.34 667 203 C664.94603274 203.40929986 664.94603274 203.40929986 663 204 C663 203.67 663 203.34 663 203 C658.38 202.67 653.76 202.34 649 202 C649 202.66 649 203.32 649 204 C646 204 646 204 643.5 203.375 C640.75628937 202.67714771 640.75628937 202.67714771 638 205 C636.35 204.01 634.7 203.02 633 202 C633 202.66 633 203.32 633 204 C631.02 204 629.04 204 627 204 C627 203.67 627 203.34 627 203 C622.38 202.67 617.76 202.34 613 202 C613 202.66 613 203.32 613 204 C611.906875 203.835 610.81375 203.67 609.6875 203.5 C606.12474127 202.93281816 606.12474127 202.93281816 603 203 C601.02339136 202.99153459 599.04678283 202.98304089 597.07017517 202.97434998 C593.73860404 202.96107967 590.40702739 202.95287067 587.07543945 202.94506836 C585.31501676 202.94001763 583.5545983 202.93317805 581.79418945 202.92456055 C579.25731376 202.91247003 576.72049292 202.90676818 574.18359375 202.90234375 C573.39399765 202.89718246 572.60440155 202.89202118 571.7908783 202.88670349 C567.76532449 202.79170397 567.76532449 202.79170397 564 204 C564 203.34 564 202.68 564 202 C561.69 202 559.38 202 557 202 C556.67 202.66 556.34 203.32 556 204 C556 203.34 556 202.68 556 202 C554.02 202.33 552.04 202.66 550 203 C550 203.33 550 203.66 550 204 C548.58376784 204.05447047 547.16691809 204.09300508 545.75 204.125 C544.96109375 204.14820313 544.1721875 204.17140625 543.359375 204.1953125 C540.79268059 203.9828378 539.2083933 203.28654105 537 202 C537 202.66 537 203.32 537 204 C535.33333333 204 533.66666667 204 532 204 C532 203.34 532 202.68 532 202 C530.86457764 202.03029297 529.72915527 202.06058594 528.55932617 202.09179688 C524.34937581 202.2040133 520.13941176 202.31570868 515.92944336 202.42724609 C514.10684843 202.47560628 512.28425725 202.52410805 510.46166992 202.57275391 C507.84294592 202.64262457 505.22420889 202.71198721 502.60546875 202.78125 C501.38188911 202.81406067 501.38188911 202.81406067 500.1335907 202.84753418 C497.08808243 202.92770301 494.04671601 203 491 203 C489.19075428 203.00496217 487.38150961 203.01030923 485.57226562 203.01586914 C477.54818493 203.0385576 469.52410584 203.05318915 461.5 203.0625 C460.76574673 203.06335602 460.03149345 203.06421204 459.27499008 203.06509399 C434.95020632 203.09003605 410.63408929 202.89096971 386.3125 202.5 C385.19646896 202.48206327 385.19646896 202.48206327 384.05789185 202.46376419 C375.03843913 202.31798872 366.01914792 202.16361505 357 202 C356.67 202.66 356.34 203.32 356 204 C356 203.34 356 202.68 356 202 C355.44441568 202.02953225 354.88883135 202.0590645 354.31641114 202.08949167 C336.73388134 202.99321809 319.17327527 203.15111205 301.57227874 203.14538372 C297.57663501 203.14517617 293.58099807 203.15073082 289.58535767 203.15544128 C281.79809029 203.1636669 274.01083049 203.16649222 266.22355913 203.16705366 C259.89599802 203.16753175 253.56843938 203.16960088 247.24087906 203.17275429 C229.26235804 203.18153084 211.28384295 203.1861772 193.30531977 203.18542381 C192.34073124 203.18538386 191.37614271 203.1853439 190.38232422 203.18530273 C189.41654847 203.18526185 188.45077273 203.18522097 187.45573105 203.18517885 C171.74764071 203.18477097 156.03957418 203.19438399 140.33149074 203.2084411 C124.16474286 203.22279395 107.99800663 203.22971221 91.83125222 203.22884732 C82.76918344 203.22851547 73.70713977 203.23125893 64.64507675 203.24202538 C56.94637333 203.2511149 49.24770647 203.25331759 41.54900001 203.24651595 C37.6230977 203.24324582 33.69726561 203.2432124 29.77136993 203.2518692 C26.17844918 203.25971081 22.58565465 203.25832696 18.99273707 203.24958507 C17.07761403 203.2473157 15.16248715 203.25489602 13.24737918 203.26282471 C12.10767992 203.25822592 10.96798065 203.25362712 9.79374504 203.24888897 C8.81264696 203.24910634 7.83154888 203.24932371 6.82072055 203.24954766 C3.64327413 202.96844065 0.97993144 202.11209182 -2 201 C-2.04666249 175.08817246 -2.08196057 149.17635118 -2.10362434 123.26449013 C-2.1139493 111.23392968 -2.12803286 99.20339529 -2.15087891 87.17285156 C-2.17077553 76.69047923 -2.18370756 66.20812576 -2.18817699 55.72573507 C-2.19079071 50.17228255 -2.19695924 44.61888402 -2.21146011 39.06544876 C-2.22498521 33.8436465 -2.22923298 28.62192073 -2.22621536 23.40010262 C-2.22676781 21.47877017 -2.23077533 19.55743529 -2.23841095 17.63611794 C-2.24829293 15.02242264 -2.24599378 12.40902001 -2.24050903 9.7953186 C-2.24633472 9.02684558 -2.2521604 8.25837255 -2.25816262 7.46661246 C-2.22824242 2.22824242 -2.22824242 2.22824242 0 0 Z M574 3 C574 3.33 574 3.66 574 4 C575.98 4 577.96 4 580 4 C580 3.67 580 3.34 580 3 C578.02 3 576.04 3 574 3 Z " fill="#010000" transform="translate(154,409)"/>
<path d="M0 0 C111.54 0 223.08 0 338 0 C338 52.8 338 105.6 338 160 C226.46 160 114.92 160 0 160 C0 107.2 0 54.4 0 0 Z " fill="#FDC142" transform="translate(173,432)"/>
<path d="M0 0 C5.28 0 10.56 0 16 0 C17.71500601 4.6243912 19.42596278 9.24988508 21.12695312 13.87939453 C21.70666258 15.45349374 22.28867644 17.02674628 22.87304688 18.59912109 C23.71312555 20.86076147 24.54484092 23.12532777 25.375 25.390625 C25.63748535 26.09181458 25.8999707 26.79300415 26.17041016 27.51544189 C27.41074169 30.92479385 28 33.31909865 28 37 C28.66 37 29.32 37 30 37 C30.11335693 36.16194824 30.22671387 35.32389648 30.34350586 34.46044922 C31.05683687 30.70040693 32.19981897 27.21700961 33.50390625 23.6328125 C33.86801857 22.61343094 33.86801857 22.61343094 34.23948669 21.57345581 C35.0090961 19.42224016 35.78567323 17.27361853 36.5625 15.125 C37.08835456 13.6590205 37.6137499 12.19287619 38.13867188 10.7265625 C39.41963263 7.14877637 40.71000266 3.574589 42 0 C47.94 0 53.88 0 60 0 C60.57455469 7.36453816 61.14405011 14.72944416 61.70898438 22.09472656 C61.90162467 24.59711106 62.09561552 27.09939199 62.29101562 29.6015625 C62.57261791 33.21066937 62.84926392 36.82012827 63.125 40.4296875 C63.21249512 41.53738495 63.29999023 42.6450824 63.39013672 43.78634644 C63.87552323 50.2131397 64.08363578 56.55481733 64 63 C59.05 63 54.1 63 49 63 C48.01 52.44 47.02 41.88 46 31 C45.14535156 33.22621094 44.29070312 35.45242188 43.41015625 37.74609375 C42.58340351 39.89420879 41.75573634 42.04196936 40.92797852 44.18969727 C40.35182422 45.68607317 39.7766259 47.18281751 39.20239258 48.67993164 C38.37830805 50.82795524 37.55082926 52.97464372 36.72265625 55.12109375 C36.46533218 55.79401962 36.20800812 56.4669455 35.94288635 57.16026306 C34.11387171 61.88612829 34.11387171 61.88612829 33 63 C30.36 63 27.72 63 25 63 C21.04 52.44 17.08 41.88 13 31 C11.91930858 41.66282201 10.84348728 52.31582785 10 63 C5.05 63 0.1 63 -5 63 C-5.23696807 51.16688488 -4.4402723 39.5870483 -3.34594727 27.80712891 C-3.05921214 24.71453874 -2.78377436 21.62108504 -2.50976562 18.52734375 C-2.33138094 16.55462845 -2.15236816 14.58196983 -1.97265625 12.609375 C-1.89032242 11.6875946 -1.80798859 10.76581421 -1.72315979 9.81610107 C-1.64315231 8.9638092 -1.56314484 8.11151733 -1.48071289 7.23339844 C-1.41187393 6.48588318 -1.34303497 5.73836792 -1.27210999 4.96820068 C-1 3 -1 3 0 0 Z " fill="#030200" transform="translate(281,479)"/>
<path d="M0 0 C5.28 0 10.56 0 16 0 C16 7.92 16 15.84 16 24 C22.27 24 28.54 24 35 24 C35 16.08 35 8.16 35 0 C39.95 0 44.9 0 50 0 C50 20.79 50 41.58 50 63 C45.05 63 40.1 63 35 63 C35 55.08 35 47.16 35 39 C28.73 39 22.46 39 16 39 C16 46.92 16 54.84 16 63 C10.72 63 5.44 63 0 63 C0 42.21 0 21.42 0 0 Z " fill="#010000" transform="translate(356,479)"/>
<path d="M0 0 C90.75 0 181.5 0 275 0 C275 0.33 275 0.66 275 1 C244.76630158 1.93431411 214.54539189 2.20175772 184.29862213 2.30332303 C177.93132811 2.32562013 171.56405463 2.35278893 165.19677734 2.37937927 C154.56071887 2.42316757 143.92465255 2.46409246 133.28857422 2.50268555 C122.35790176 2.54235577 111.42723861 2.58385132 100.49658203 2.62768555 C99.47735147 2.63177196 99.47735147 2.63177196 98.4375304 2.63594092 C95.0270352 2.64962552 91.61654014 2.66334477 88.20604515 2.67708123 C60.13738314 2.79008897 32.06870051 2.89703461 4 3 C2.62623381 5.74753238 2.87721137 7.9346009 2.87974548 11.01101685 C2.87836799 12.29004442 2.87699049 13.569072 2.87557125 14.88685799 C2.87911831 16.31796414 2.8827562 17.74907007 2.88647461 19.18017578 C2.8867808 20.70229019 2.8866477 22.22440474 2.88610935 23.74651909 C2.88588308 27.83213863 2.89168971 31.91772903 2.89871979 36.00334167 C2.90440391 39.83352757 2.90468232 43.66370629 2.90539551 47.49389648 C2.9106482 58.7042682 2.92460928 69.91463447 2.9375 81.125 C2.958125 106.16375 2.97875 131.2025 3 157 C93.42 157.33 183.84 157.66 277 158 C277 158.33 277 158.66 277 159 C185.59 159 94.18 159 0 159 C0 106.53 0 54.06 0 0 Z " fill="#FDF463" transform="translate(173,432)"/>
<path d="M0 0 C3.96 0 7.92 0 12 0 C16.29 7.92 20.58 15.84 25 24 C25.33 16.08 25.66 8.16 26 0 C28.97 0 31.94 0 35 0 C35 13.53 35 27.06 35 41 C31.7 41 28.4 41 25 41 C22.30302124 37.91773856 20.84670315 35.57941229 19 32 C17.84150716 29.9412963 16.66683756 27.89232224 15.4909668 25.84350586 C13.6360121 22.5761996 11.82228672 19.28563818 10 16 C9.67 24.25 9.34 32.5 9 41 C6.03 41 3.06 41 0 41 C0 27.47 0 13.94 0 0 Z " fill="#FAA53A" transform="translate(780,497)"/>
<path d="M0 0 C4.71517858 1.72285371 7.12926548 3.91472396 10 8 C4.25 12 4.25 12 2 12 C1.4225 11.319375 0.845 10.63875 0.25 9.9375 C-0.4925 9.298125 -1.235 8.65875 -2 8 C-5.19954954 8.14349347 -5.19954954 8.14349347 -8 9 C-6.68554313 14.98808129 -3.38808974 18.03429323 1 22 C1.61294922 21.26330078 1.61294922 21.26330078 2.23828125 20.51171875 C5.23066522 17.94397464 8.18472238 18.8123634 12 19 C11.5250934 22.32434622 11.09356217 24.82457093 9.5 27.8125 C8.64674064 30.98992853 8.64674064 30.98992853 10.4296875 33.30859375 C11.71357936 34.91990381 13.03653836 36.50093543 14.3984375 38.046875 C16 40 16 40 16 42 C14.37536158 42.05395478 12.75021459 42.09277195 11.125 42.125 C9.76761719 42.15980469 9.76761719 42.15980469 8.3828125 42.1953125 C6 42 6 42 4 40 C2.01508358 40.26676204 2.01508358 40.26676204 0 41 C-5.48787539 42.8292918 -11.72494768 42.97502242 -17.0625 40.6875 C-19.45036884 38.60774326 -20.85273729 36.90062774 -21.37109375 33.73046875 C-21.57215179 26.03112857 -21.57215179 26.03112857 -18.4375 22.6875 C-17.633125 21.800625 -16.82875 20.91375 -16 20 C-16.10613836 17.54775306 -16.10613836 17.54775306 -17 15 C-17.67010138 9.72295164 -17.67010138 9.72295164 -17 7 C-12.27916787 1.26579553 -7.36947887 -0.75619653 0 0 Z " fill="#F8C23E" transform="translate(653,496)"/>
<path d="M0 0 C3.3 -0.0825 6.6 -0.165 10 -0.25 C11.02351562 -0.28641602 12.04703125 -0.32283203 13.1015625 -0.36035156 C19.19088406 -0.43340457 23.99728188 0.3380793 29 4 C32.05056084 8.28985119 32.55666413 11.80446811 32 17 C30.25583626 21.68170268 28.12964161 24.21249191 24 27 C19.09931037 28.63356321 14.14261524 28.05529694 9 28 C9 32.29 9 36.58 9 41 C6.03 41 3.06 41 0 41 C0 27.47 0 13.94 0 0 Z " fill="#F9A339" transform="translate(687,497)"/>
<path d="M0 0 C3.63 0 7.26 0 11 0 C14.67521112 8.62462734 18.0652631 17.3310014 21.3125 26.125 C21.76689453 27.341875 22.22128906 28.55875 22.68945312 29.8125 C23.11806641 30.97007812 23.54667969 32.12765625 23.98828125 33.3203125 C24.56896362 34.88676514 24.56896362 34.88676514 25.16137695 36.48486328 C26 39 26 39 26 41 C22.7 41 19.4 41 16 41 C14.515 36.05 14.515 36.05 13 31 C8.05 31 3.1 31 -2 31 C-2.99 34.3 -3.98 37.6 -5 41 C-8.3 41 -11.6 41 -15 41 C-12.83195753 33.46049334 -10.28261467 26.14556208 -7.5 18.8125 C-7.10941406 17.77158203 -6.71882812 16.73066406 -6.31640625 15.65820312 C-4.32680462 10.38274427 -2.27640937 5.15840201 0 0 Z " fill="#F7A93B" transform="translate(734,497)"/>
<path d="M0 0 C3.85981619 -0.69099784 7.17151158 -0.94942407 11 0 C14.25291077 3.38058474 18 8.11248921 18 13 C18.66 13 19.32 13 20 13 C20.226875 12.34 20.45375 11.68 20.6875 11 C21.120625 10.01 21.55375 9.02 22 8 C22.28359375 7.30261719 22.5671875 6.60523438 22.859375 5.88671875 C24.04318448 3.47191898 24.99868703 1.8117613 27 0 C30.75297624 -0.69245055 34.22798193 -0.475631 38 0 C34.85998454 5.99062857 31.37612313 11.34253109 27.16015625 16.640625 C25.73551722 18.92528732 25.73551722 18.92528732 26.48828125 21.31640625 C28.51328294 24.91117668 30.77702051 28.29707023 33.125 31.6875 C38 38.73140496 38 38.73140496 38 41 C34.07730584 41.84366768 30.88240803 42.12452448 27 41 C23.54710348 37.02084553 21.26892989 32.73289673 19 28 C17.8745809 29.60387267 16.74968028 31.20810916 15.625 32.8125 C14.99851562 33.70582031 14.37203125 34.59914063 13.7265625 35.51953125 C12.46449761 37.33267878 11.22541192 39.16188211 10 41 C7.3984375 41.29296875 7.3984375 41.29296875 4.375 41.1875 C2.87066406 41.14689453 2.87066406 41.14689453 1.3359375 41.10546875 C0.56507813 41.07066406 -0.20578125 41.03585937 -1 41 C0.32250321 38.19336291 1.81196202 35.7653638 3.671875 33.28515625 C4.17074219 32.59873047 4.66960938 31.91230469 5.18359375 31.20507812 C6.23148293 29.77174343 7.29153628 28.3472263 8.36328125 26.93164062 C11.32529459 23.07964685 11.32529459 23.07964685 11.6484375 18.48046875 C11.10445312 17.66191406 10.56046875 16.84335937 10 16 C9.4440918 15.12323608 9.4440918 15.12323608 8.87695312 14.22875977 C7.58030809 12.20815459 6.2356064 10.22802443 4.875 8.25 C0 1.11880165 0 1.11880165 0 0 Z " fill="#F9D441" transform="translate(576,497)"/>
<path d="M0 0 C8.91 0 17.82 0 27 0 C27 2.64 27 5.28 27 8 C21.06 8 15.12 8 9 8 C9 10.64 9 13.28 9 16 C14.61 16 20.22 16 26 16 C26 18.64 26 21.28 26 24 C20.39 24 14.78 24 9 24 C9 29.61 9 35.22 9 41 C6.03 41 3.06 41 0 41 C0 27.47 0 13.94 0 0 Z " fill="#F7D13F" transform="translate(529,497)"/>
<path d="M0 0 C10.89 0 21.78 0 33 0 C33 2.64 33 5.28 33 8 C29.37 8 25.74 8 22 8 C22 18.89 22 29.78 22 41 C18.7 41 15.4 41 12 41 C12 30.11 12 19.22 12 8 C8.04 8 4.08 8 0 8 C0 5.36 0 2.72 0 0 Z " fill="#F6A73C" transform="translate(819,497)"/>
<path d="M0 0 C2.97 0 5.94 0 9 0 C9 13.53 9 27.06 9 41 C6.03 41 3.06 41 0 41 C0 27.47 0 13.94 0 0 Z " fill="#FCA036" transform="translate(763,497)"/>
<path d="M0 0 C2.97 0 5.94 0 9 0 C9 13.53 9 27.06 9 41 C6.03 41 3.06 41 0 41 C0 27.47 0 13.94 0 0 Z " fill="#FCD03C" transform="translate(562,497)"/>
<path d="M0 0 C3.135 -0.0825 6.27 -0.165 9.5 -0.25 C10.47130859 -0.28641602 11.44261719 -0.32283203 12.44335938 -0.36035156 C18.41234098 -0.43563164 23.08892553 0.44525233 28 4 C31.05056084 8.28985119 31.55666413 11.80446811 31 17 C29.27396036 21.63305377 27.22046447 24.38733152 23 27 C20.1875 27.25 20.1875 27.25 18 27 C18 26.67 18 26.34 18 26 C15.69 25.67 13.38 25.34 11 25 C11.99 24.34 12.98 23.68 14 23 C12.02 22.67 10.04 22.34 8 22 C8 21.67 8 21.34 8 21 C9.15628906 20.83564453 9.15628906 20.83564453 10.3359375 20.66796875 C11.33882812 20.50941406 12.34171875 20.35085938 13.375 20.1875 C14.37273438 20.03667969 15.37046875 19.88585937 16.3984375 19.73046875 C19.3287364 19.21227702 19.3287364 19.21227702 21 16 C21 12.91666667 21 12.91666667 20 10 C16.76392738 7.281699 12.05659039 7.40565904 8 7 C8 6.67 8 6.34 8 6 C9.98 5.67 11.96 5.34 14 5 C13.01 4.34 12.02 3.68 11 3 C11.99 2.67 12.98 2.34 14 2 C9.71 1.67 5.42 1.34 1 1 C1 13.54 1 26.08 1 39 C0.67 39 0.34 39 0 39 C0 26.13 0 13.26 0 0 Z " fill="#FCB841" transform="translate(688,497)"/>
<path d="M0 0 C77.22 0 154.44 0 234 0 C234 0.33 234 0.66 234 1 C232.81225322 1.00331015 231.62450644 1.00662029 230.40076733 1.01003075 C202.22350233 1.08900142 174.04628327 1.17820339 145.86909155 1.28005161 C142.40304373 1.29257089 138.93699559 1.30500361 135.47094727 1.31738281 C134.78090218 1.31984881 134.0908571 1.3223148 133.37990157 1.32485552 C122.19808398 1.36460906 111.01625626 1.3973449 99.83440914 1.42749982 C88.36586667 1.45858363 76.89737381 1.49732855 65.42887813 1.54279006 C58.98507013 1.5680893 52.54129281 1.58986042 46.09744835 1.60334396 C40.03759683 1.61613328 33.97785034 1.63815366 27.91805649 1.66738319 C25.68916137 1.67648353 23.46024933 1.68215489 21.23133659 1.68421364 C18.19757609 1.68751887 15.16411653 1.70294894 12.13041687 1.7215271 C11.24034634 1.71959237 10.35027581 1.71765763 9.43323344 1.71566427 C4.4192495 1.7492868 4.4192495 1.7492868 0 4 C0 2.68 0 1.36 0 0 Z " fill="#FEEC52" transform="translate(174,433)"/>
<path d="M0 0 C3.96 0 7.92 0 12 0 C13.36396462 2.45334555 14.71634169 4.91191234 16.0625 7.375 C16.64741211 8.42300781 16.64741211 8.42300781 17.24414062 9.4921875 C18.22415178 11.29610184 19.11875071 13.14583482 20 15 C19.67 15.66 19.34 16.32 19 17 C17.6583797 14.9007236 16.32663161 12.7962168 15 10.6875 C14.6184375 10.09259766 14.236875 9.49769531 13.84375 8.88476562 C11 4.33984375 11 4.33984375 11 1 C8.03 1 5.06 1 2 1 C2 13.54 2 26.08 2 39 C3.65 39 5.3 39 7 39 C7 30.42 7 21.84 7 13 C9 15 9 15 9.22705078 17.61376953 C9.21134033 19.2319458 9.21134033 19.2319458 9.1953125 20.8828125 C9.18564453 22.63271484 9.18564453 22.63271484 9.17578125 24.41796875 C9.15902344 25.64128906 9.14226563 26.86460937 9.125 28.125 C9.11597656 29.35605469 9.10695313 30.58710937 9.09765625 31.85546875 C9.07402548 34.90383815 9.04108054 37.95182382 9 41 C6.03 41 3.06 41 0 41 C0 27.47 0 13.94 0 0 Z " fill="#F8C044" transform="translate(780,497)"/>
<path d="M0 0 C7.06234414 -0.35910224 7.06234414 -0.35910224 10.9375 1.125 C13 3 13 3 14 5.9375 C14 9 14 9 12.75 11.3125 C9.9960999 13.96804653 7.46335426 14.12235007 3.8125 14.0625 C1.9253125 14.0315625 1.9253125 14.0315625 0 14 C0 9.38 0 4.76 0 0 Z " fill="#0F0702" transform="translate(696,504)"/>
<path d="M0 0 C2.97 0 5.94 0 9 0 C9 13.53 9 27.06 9 41 C6.03 41 3.06 41 0 41 C0 27.47 0 13.94 0 0 Z M2 1 C2 13.54 2 26.08 2 39 C3.98 39 5.96 39 8 39 C8 26.46 8 13.92 8 1 C6.02 1 4.04 1 2 1 Z " fill="#FAEE4F" transform="translate(562,497)"/>
<path d="M0 0 C2.97 0 5.94 0 9 0 C9 13.53 9 27.06 9 41 C6.03 41 3.06 41 0 41 C0 27.47 0 13.94 0 0 Z M2 1 C2 13.54 2 26.08 2 39 C3.98 39 5.96 39 8 39 C8 26.46 8 13.92 8 1 C6.02 1 4.04 1 2 1 Z " fill="#F8CA47" transform="translate(763,497)"/>
<path d="M0 0 C8.91 0 17.82 0 27 0 C27 0.33 27 0.66 27 1 C18.75 1 10.5 1 2 1 C2 13.54 2 26.08 2 39 C3.98 39 5.96 39 8 39 C8 34.05 8 29.1 8 24 C8.33 24 8.66 24 9 24 C9 29.61 9 35.22 9 41 C6.03 41 3.06 41 0 41 C0 27.47 0 13.94 0 0 Z " fill="#F7E84F" transform="translate(529,497)"/>
<path d="M0 0 C4.62 0 9.24 0 14 0 C14 2.31 14 4.62 14 7 C10.37 7 6.74 7 3 7 C3 17.89 3 28.78 3 40 C-0.3 40 -3.6 40 -7 40 C-7 39.67 -7 39.34 -7 39 C-4.03 39 -1.06 39 2 39 C2 27.78 2 16.56 2 5 C6.455 4.505 6.455 4.505 11 4 C11 3.34 11 2.68 11 2 C10.06027344 2.03480469 10.06027344 2.03480469 9.1015625 2.0703125 C7.87566406 2.09738281 7.87566406 2.09738281 6.625 2.125 C5.81289063 2.14820313 5.00078125 2.17140625 4.1640625 2.1953125 C2 2 2 2 0 0 Z " fill="#D28430" transform="translate(838,498)"/>
<path d="M0 0 C0.33 0 0.66 0 1 0 C1.35640731 11.7812416 0.25940704 23.30024254 -1 35 C-1.33 35 -1.66 35 -2 35 C-3.6928108 26.17320081 -3.68343411 16.83802906 -2 8 C-1.34 8 -0.68 8 0 8 C0 5.36 0 2.72 0 0 Z " fill="#FAE752" transform="translate(277,501)"/>
<path d="M0 0 C3.82946843 1.45255699 5.12050295 3.42895561 7 7 C5.18887927 9.28773145 4.39279457 9.95209822 1.4375 10.3125 C-1 10 -1 10 -3 8 C-3.3125 5.5625 -3.3125 5.5625 -3 3 C-1.5 1.1875 -1.5 1.1875 0 0 Z " fill="#070301" transform="translate(644,521)"/>
<path d="M0 0 C2.46301423 2.46301423 2.76766521 4.27360036 3.625 7.625 C3.88539063 8.62789062 4.14578125 9.63078125 4.4140625 10.6640625 C4.60742188 11.43492187 4.80078125 12.20578125 5 13 C2.03 13 -0.94 13 -4 13 C-3.52343588 11.20763933 -3.04366502 9.41613103 -2.5625 7.625 C-2.29566406 6.62726562 -2.02882813 5.62953125 -1.75390625 4.6015625 C-1 2 -1 2 0 0 Z " fill="#100803" transform="translate(739,507)"/>
<path d="M0 0 C0.33 0 0.66 0 1 0 C1.22580354 3.43658708 1.42762697 6.87417218 1.625 10.3125 C1.68945312 11.28896484 1.75390625 12.26542969 1.8203125 13.27148438 C1.871875 14.20927734 1.9234375 15.14707031 1.9765625 16.11328125 C2.02893066 16.97735596 2.08129883 17.84143066 2.13525391 18.73168945 C2 21 2 21 0 24 C-1 23 -1 23 -1.09765625 20.93359375 C-1.08025391 19.69802734 -1.08025391 19.69802734 -1.0625 18.4375 C-1.05347656 17.61121094 -1.04445313 16.78492188 -1.03515625 15.93359375 C-1.02355469 15.29550781 -1.01195312 14.65742187 -1 14 C-1.66 14 -2.32 14 -3 14 C-2.58846263 9.02906176 -2.20399168 4.55491614 0 0 Z " fill="#F5D849" transform="translate(327,507)"/>
<path d="M0 0 C9.6402439 -0.56707317 9.6402439 -0.56707317 14 3 C14.99 4.485 14.99 4.485 16 6 C13.75 7.1875 13.75 7.1875 11 8 C8.9375 6.6875 8.9375 6.6875 7 5 C4.85266073 4.29485154 4.85266073 4.29485154 3 4 C3 3.34 3 2.68 3 2 C2.01 1.34 1.02 0.68 0 0 Z " fill="#FCB539" transform="translate(645,498)"/>
<path d="M0 0 C1.13643966 3.40931897 0.86747764 4.00335456 -0.4375 7.1875 C-0.72496094 7.90292969 -1.01242187 8.61835937 -1.30859375 9.35546875 C-1.53675781 9.89816406 -1.76492188 10.44085937 -2 11 C0.92202417 11.14031566 0.92202417 11.14031566 4 10 C5.46581614 7.46032588 6.26532365 4.82914839 7 2 C8.478746 6.436238 6.74833678 8.73405826 5 13 C1.7 13 -1.6 13 -5 13 C-4.54803755 11.39402675 -4.08817673 9.79027492 -3.625 8.1875 C-3.36976563 7.29417969 -3.11453125 6.40085937 -2.8515625 5.48046875 C-2 3 -2 3 0 0 Z " fill="#EDBC43" transform="translate(724,525)"/>
<path d="M0 0 C3.09423168 3.09423168 3.93706005 6.5523812 4.125 10.875 C4.08375 11.57625 4.0425 12.2775 4 13 C3.34 12.01 2.68 11.02 2 10 C1.34 15.61 0.68 21.22 0 27 C-0.33 27 -0.66 27 -1 27 C-1.02721831 23.9999376 -1.04694378 21.00012744 -1.0625 18 C-1.07087891 17.16082031 -1.07925781 16.32164062 -1.08789062 15.45703125 C-1.10824033 10.20680661 -0.76368207 5.19544338 0 0 Z " fill="#EEE555" transform="translate(293,508)"/>
<path d="M0 0 C3 1 3 1 4.6875 3.625 C6.62378653 8.60402251 6.6791691 12.17696716 4.8125 17.1875 C2.81928618 20.280418 1.12773455 22.06378337 -2 24 C-4.8125 24.25 -4.8125 24.25 -7 24 C-4.97106271 22.64737514 -2.92886125 21.3144712 -0.875 20 C2.04489239 18.30925867 2.04489239 18.30925867 3 16 C3.23604169 13.69589956 3.23604169 13.69589956 3.25 11.125 C3.27578125 10.26132812 3.3015625 9.39765625 3.328125 8.5078125 C2.93912302 5.53472593 1.87595698 4.28076875 0 2 C0 1.34 0 0.68 0 0 Z " fill="#F2C447" transform="translate(713,500)"/>
<path d="M0 0 C1.31600093 3.94800278 0.07613159 6.39940306 -1.3125 10.125 C-1.53873047 10.77082031 -1.76496094 11.41664063 -1.99804688 12.08203125 C-3.73948991 16.86974496 -3.73948991 16.86974496 -6 18 C-5.69052329 16.06201479 -5.37731166 14.12462574 -5.0625 12.1875 C-4.88847656 11.10855469 -4.71445312 10.02960938 -4.53515625 8.91796875 C-4 6 -4 6 -3 3 C-2.34 3 -1.68 3 -1 3 C-0.67 2.01 -0.34 1.02 0 0 Z " fill="#F7DF4E" transform="translate(319,487)"/>
<path d="M0 0 C0.66 0.33 1.32 0.66 2 1 C2.10152799 7.7685324 2.03026944 14.30324864 1 21 C0.67 21 0.34 21 0 21 C-0.1963696 18.62543835 -0.38231294 16.25079981 -0.5625 13.875 C-0.61857422 13.20984375 -0.67464844 12.5446875 -0.73242188 11.859375 C-1.03625857 7.7271959 -0.85227531 4.05304259 0 0 Z " fill="#F8E756" transform="translate(278,478)"/>
<path d="M0 0 C2 1 2 1 2.8515625 3.28515625 C3.10679687 4.20167969 3.36203125 5.11820313 3.625 6.0625 C3.88539063 6.98160156 4.14578125 7.90070312 4.4140625 8.84765625 C4.60742188 9.55792969 4.80078125 10.26820313 5 11 C1.7 11 -1.6 11 -5 11 C-5 10.34 -5 9.68 -5 9 C-1.535 8.505 -1.535 8.505 2 8 C1.67 7.236875 1.34 6.47375 1 5.6875 C0 3 0 3 0 0 Z " fill="#E8B743" transform="translate(755,527)"/>
<path d="M0 0 C0.33 0 0.66 0 1 0 C1.33 3.63 1.66 7.26 2 11 C1.67 11 1.34 11 1 11 C0.67 12.98 0.34 14.96 0 17 C-0.66 17 -1.32 17 -2 17 C-1.85978195 14.35375716 -1.71310224 11.70815422 -1.5625 9.0625 C-1.52318359 8.30775391 -1.48386719 7.55300781 -1.44335938 6.77539062 C-1.11328125 1.11328125 -1.11328125 1.11328125 0 0 Z " fill="#F9D545" transform="translate(277,492)"/>
<path d="M0 0 C1.89213369 2.38573379 3.02391783 4.07175348 4 7 C4.66 6.67 5.32 6.34 6 6 C5.67 8.31 5.34 10.62 5 13 C4.34 13 3.68 13 3 13 C2.49487756 11.39743892 1.99608373 9.79288208 1.5 8.1875 C1.2215625 7.29417969 0.943125 6.40085937 0.65625 5.48046875 C0 3 0 3 0 0 Z " fill="#F5E959" transform="translate(306,503)"/>
<path d="M0 0 C0.99 0.495 0.99 0.495 2 1 C3.54023996 1.06950541 5.08334988 1.08452357 6.625 1.0625 C7.44226563 1.05347656 8.25953125 1.04445313 9.1015625 1.03515625 C9.72804688 1.02355469 10.35453125 1.01195312 11 1 C11.33 1.99 11.66 2.98 12 4 C8.7 4 5.4 4 2 4 C1.34 2.68 0.68 1.36 0 0 Z " fill="#E7BF45" transform="translate(657,534)"/>
<path d="M0 0 C3.63 0 7.26 0 11 0 C11.33 0.99 11.66 1.98 12 3 C8.37 3 4.74 3 1 3 C0.67 2.01 0.34 1.02 0 0 Z " fill="#E0C647" transform="translate(602,535)"/>
<path d="M0 0 C2.97 0 5.94 0 9 0 C8.01 1.485 8.01 1.485 7 3 C3.375 3.1875 3.375 3.1875 0 3 C0 2.01 0 1.02 0 0 Z " fill="#FDA239" transform="translate(822,499)"/>
<path d="M0 0 C2.64 0 5.28 0 8 0 C8 0.66 8 1.32 8 2 C6.88625 2.12375 5.7725 2.2475 4.625 2.375 C0.96896323 2.6465813 0.96896323 2.6465813 -1 5 C-0.67 3.35 -0.34 1.7 0 0 Z " fill="#F9DA47" transform="translate(657,515)"/>
<path d="M0 0 C2.31 0 4.62 0 7 0 C7 0.33 7 0.66 7 1 C4.69 1 2.38 1 0 1 C0 0.67 0 0.34 0 0 Z " fill="#241906" transform="translate(773,612)"/>
<path d="M0 0 C1.98 0 3.96 0 6 0 C6 0.33 6 0.66 6 1 C4.02 1 2.04 1 0 1 C0 0.67 0 0.34 0 0 Z " fill="#251805" transform="translate(805,612)"/>
<path d="M0 0 C1.98 0 3.96 0 6 0 C6 0.33 6 0.66 6 1 C4.02 1 2.04 1 0 1 C0 0.67 0 0.34 0 0 Z " fill="#2A1D07" transform="translate(637,612)"/>
<path d="M0 0 C1.98 0 3.96 0 6 0 C6 0.33 6 0.66 6 1 C4.02 1 2.04 1 0 1 C0 0.67 0 0.34 0 0 Z " fill="#2A1E07" transform="translate(565,612)"/>
<path d="M0 0 C1.98 0 3.96 0 6 0 C6 0.33 6 0.66 6 1 C4.02 1 2.04 1 0 1 C0 0.67 0 0.34 0 0 Z " fill="#513E13" transform="translate(470,411)"/>
<path d="M0 0 C1.65 0 3.3 0 5 0 C5 0.33 5 0.66 5 1 C3.35 1 1.7 1 0 1 C0 0.67 0 0.34 0 0 Z " fill="#261A07" transform="translate(838,612)"/>
<path d="M0 0 C1.65 0 3.3 0 5 0 C5 0.33 5 0.66 5 1 C3.35 1 1.7 1 0 1 C0 0.67 0 0.34 0 0 Z " fill="#281C07" transform="translate(622,612)"/>
<path d="M0 0 C1.65 0 3.3 0 5 0 C5 0.33 5 0.66 5 1 C3.35 1 1.7 1 0 1 C0 0.67 0 0.34 0 0 Z " fill="#554417" transform="translate(210,411)"/>
<path d="M0 0 C4 1 4 1 4 1 Z " fill="#271B06" transform="translate(660,612)"/>
<path d="M0 0 C4 1 4 1 4 1 Z " fill="#291B07" transform="translate(652,612)"/>
<path d="M0 0 C3 1 3 1 3 1 Z " fill="#271B08" transform="translate(845,612)"/>
<path d="M0 0 C3 1 3 1 3 1 Z " fill="#271B06" transform="translate(741,612)"/>
<path d="M0 0 C3 1 3 1 3 1 Z " fill="#271A07" transform="translate(725,612)"/>
<path d="M0 0 C3 1 3 1 3 1 Z " fill="#281B06" transform="translate(712,612)"/>
<path d="M0 0 C3 1 3 1 3 1 Z " fill="#271B07" transform="translate(705,612)"/>
<path d="M0 0 C3 1 3 1 3 1 Z " fill="#2A1D07" transform="translate(632,612)"/>
<path d="M0 0 C3 1 3 1 3 1 Z " fill="#281B07" transform="translate(617,612)"/>
<path d="M0 0 C3 1 3 1 3 1 Z " fill="#2A1D07" transform="translate(613,612)"/>
<path d="M0 0 C3 1 3 1 3 1 Z " fill="#2A1D07" transform="translate(605,612)"/>
<path d="M0 0 C3 1 3 1 3 1 Z " fill="#2A1D06" transform="translate(589,612)"/>
<path d="M0 0 C3 1 3 1 3 1 Z " fill="#2A1E07" transform="translate(584,612)"/>
<path d="M0 0 C3 1 3 1 3 1 Z " fill="#2B1E07" transform="translate(557,612)"/>
<path d="M0 0 C0.66 0.66 1.32 1.32 2 2 C1.34 2 0.68 2 0 2 C0 1.34 0 0.68 0 0 Z " fill="#2E230A" transform="translate(810,410)"/>
<path d="M0 0 C3 1 3 1 3 1 Z " fill="#2E250B" transform="translate(764,411)"/>
<path d="M0 0 C3 1 3 1 3 1 Z " fill="#30240B" transform="translate(712,411)"/>
<path d="M0 0 C0.66 0.66 1.32 1.32 2 2 C1.34 2 0.68 2 0 2 C0 1.34 0 0.68 0 0 Z " fill="#33280B" transform="translate(682,410)"/>
<path d="M0 0 C3 1 3 1 3 1 Z " fill="#34280B" transform="translate(664,411)"/>
<path d="M0 0 C3 1 3 1 3 1 Z " fill="#3A2C0C" transform="translate(560,411)"/>
<path d="M0 0 C3 1 3 1 3 1 Z " fill="#463510" transform="translate(520,411)"/>
<path d="M0 0 C3 1 3 1 3 1 Z " fill="#554416" transform="translate(178,411)"/>
<path d="M0 0 C0.33 0.66 0.66 1.32 1 2 C0.34 1.67 -0.32 1.34 -1 1 C-0.67 0.67 -0.34 0.34 0 0 Z " fill="#2F230B" transform="translate(787,410)"/>
<path d="" fill="#251C08" transform="translate(0,0)"/>
<path d="M0 0 C2 1 2 1 2 1 Z " fill="#261A07" transform="translate(833,612)"/>
<path d="M0 0 C2 1 2 1 2 1 Z " fill="#231807" transform="translate(814,612)"/>
<path d="M0 0 C2 1 2 1 2 1 Z " fill="#241A06" transform="translate(769,612)"/>
<path d="M0 0 C2 1 2 1 2 1 Z " fill="#261905" transform="translate(761,612)"/>
<path d="M0 0 C2 1 2 1 2 1 Z " fill="#251A08" transform="translate(753,612)"/>
<path d="M0 0 C2 1 2 1 2 1 Z " fill="#241907" transform="translate(745,612)"/>
<path d="M0 0 C2 1 2 1 2 1 Z " fill="#261A06" transform="translate(737,612)"/>
<path d="M0 0 C2 1 2 1 2 1 Z " fill="#261A06" transform="translate(729,612)"/>
<path d="M0 0 C2 1 2 1 2 1 Z " fill="#261D07" transform="translate(721,612)"/>
<path d="M0 0 C2 1 2 1 2 1 Z " fill="#281B07" transform="translate(681,612)"/>
<path d="M0 0 C2 1 2 1 2 1 Z " fill="#271B07" transform="translate(677,612)"/>
<path d="M0 0 C2 1 2 1 2 1 Z " fill="#271B07" transform="translate(673,612)"/>
<path d="M0 0 C2 1 2 1 2 1 Z " fill="#271B07" transform="translate(670,612)"/>
<path d="M0 0 C2 1 2 1 2 1 Z " fill="#271B07" transform="translate(665,612)"/>
<path d="M0 0 C2 1 2 1 2 1 Z " fill="#271C06" transform="translate(657,612)"/>
<path d="M0 0 C2 1 2 1 2 1 Z " fill="#271B06" transform="translate(649,612)"/>
<path d="M0 0 C2 1 2 1 2 1 Z " fill="#2A1C05" transform="translate(629,612)"/>
<path d="M0 0 C2 1 2 1 2 1 Z " fill="#291D08" transform="translate(609,612)"/>
<path d="M0 0 C2 1 2 1 2 1 Z " fill="#291D06" transform="translate(601,612)"/>
<path d="M0 0 C2 1 2 1 2 1 Z " fill="#2B1D07" transform="translate(597,612)"/>
<path d="M0 0 C2 1 2 1 2 1 Z " fill="#2A1D07" transform="translate(593,612)"/>
<path d="M0 0 C2 1 2 1 2 1 Z " fill="#2A1D07" transform="translate(561,612)"/>
<path d="M0 0 C2 1 2 1 2 1 Z " fill="#2B1E07" transform="translate(553,612)"/>
<path d="M0 0 C2 1 2 1 2 1 Z " fill="#312309" transform="translate(537,612)"/>
<path d="M0 0 C2 1 2 1 2 1 Z " fill="#37260A" transform="translate(513,612)"/>
<path d="M0 0 C2 1 2 1 2 1 Z " fill="#3D2B0D" transform="translate(470,612)"/>
<path d="M0 0 C2 1 2 1 2 1 Z " fill="#41300C" transform="translate(425,612)"/>
<path d="M0 0 C2 1 2 1 2 1 Z " fill="#41300D" transform="translate(393,612)"/>
<path d="M0 0 C2 1 2 1 2 1 Z " fill="#44300D" transform="translate(377,612)"/>
<path d="M0 0 C2 1 2 1 2 1 Z " fill="#46330D" transform="translate(289,612)"/>
<path d="" fill="#231705" transform="translate(0,0)"/>
<path d="M0 0 C2 1 2 1 2 1 Z " fill="#33270C" transform="translate(863,411)"/>
<path d="" fill="#382A0C" transform="translate(0,0)"/>
<path d="M0 0 C2 1 2 1 2 1 Z " fill="#503F14" transform="translate(418,411)"/>
<path d="M0 0 C2 1 2 1 2 1 Z " fill="#564518" transform="translate(170,411)"/>
<path d="M0 0 C2 1 2 1 2 1 Z " fill="#584314" transform="translate(370,410)"/>
<path d="" fill="#A6862F" transform="translate(0,0)"/>
<path d="" fill="#68521D" transform="translate(0,0)"/>
<path d="" fill="#503C13" transform="translate(0,0)"/>
<path d="" fill="#231A08" transform="translate(0,0)"/>
<path d="" fill="#2B1F08" transform="translate(0,0)"/>
<path d="" fill="#261A08" transform="translate(0,0)"/>
<path d="" fill="#281A07" transform="translate(0,0)"/>
<path d="" fill="#2D1F09" transform="translate(0,0)"/>
<path d="" fill="#2C1E08" transform="translate(0,0)"/>
<path d="" fill="#32210A" transform="translate(0,0)"/>
<path d="" fill="#322209" transform="translate(0,0)"/>
<path d="" fill="#322107" transform="translate(0,0)"/>
<path d="" fill="#352509" transform="translate(0,0)"/>
<path d="" fill="#3C280B" transform="translate(0,0)"/>
<path d="" fill="#3B290D" transform="translate(0,0)"/>
<path d="" fill="#3C2A0B" transform="translate(0,0)"/>
<path d="" fill="#3F2A0C" transform="translate(0,0)"/>
<path d="" fill="#3F2D0B" transform="translate(0,0)"/>
<path d="" fill="#402D0D" transform="translate(0,0)"/>
<path d="" fill="#40300B" transform="translate(0,0)"/>
<path d="" fill="#422D0C" transform="translate(0,0)"/>
<path d="" fill="#42300C" transform="translate(0,0)"/>
<path d="" fill="#422F0C" transform="translate(0,0)"/>
<path d="" fill="#432F0C" transform="translate(0,0)"/>
<path d="" fill="#44300D" transform="translate(0,0)"/>
<path d="" fill="#442F0D" transform="translate(0,0)"/>
<path d="" fill="#47320D" transform="translate(0,0)"/>
<path d="" fill="#46310C" transform="translate(0,0)"/>
<path d="" fill="#48360F" transform="translate(0,0)"/>
<path d="" fill="#49350F" transform="translate(0,0)"/>
<path d="" fill="#534116" transform="translate(0,0)"/>
<path d="" fill="#5A471B" transform="translate(0,0)"/>
<path d="" fill="#34260B" transform="translate(0,0)"/>
<path d="" fill="#2F250B" transform="translate(0,0)"/>
<path d="" fill="#211806" transform="translate(0,0)"/>
<path d="" fill="#231807" transform="translate(0,0)"/>
<path d="" fill="#241807" transform="translate(0,0)"/>
<path d="" fill="#241806" transform="translate(0,0)"/>
<path d="" fill="#241A08" transform="translate(0,0)"/>
<path d="" fill="#231907" transform="translate(0,0)"/>
<path d="" fill="#94782B" transform="translate(0,0)"/>
<path d="" fill="#5F4A19" transform="translate(0,0)"/>
<path d="" fill="#35270D" transform="translate(0,0)"/>
<path d="" fill="#31260B" transform="translate(0,0)"/>
<path d="" fill="#31250C" transform="translate(0,0)"/>
<path d="" fill="#2F2409" transform="translate(0,0)"/>
<path d="" fill="#2E240A" transform="translate(0,0)"/>
<path d="" fill="#2E230B" transform="translate(0,0)"/>
<path d="" fill="#30220A" transform="translate(0,0)"/>
<path d="" fill="#2C210B" transform="translate(0,0)"/>
<path d="" fill="#2D230C" transform="translate(0,0)"/>
<path d="" fill="#2D220A" transform="translate(0,0)"/>
<path d="" fill="#2F230B" transform="translate(0,0)"/>
<path d="" fill="#2F240A" transform="translate(0,0)"/>
<path d="" fill="#2F230C" transform="translate(0,0)"/>
<path d="" fill="#2F230A" transform="translate(0,0)"/>
<path d="" fill="#34270C" transform="translate(0,0)"/>
<path d="" fill="#33260B" transform="translate(0,0)"/>
<path d="" fill="#34270B" transform="translate(0,0)"/>
<path d="" fill="#2E2708" transform="translate(0,0)"/>
<path d="" fill="#31230B" transform="translate(0,0)"/>
<path d="" fill="#30230A" transform="translate(0,0)"/>
<path d="" fill="#30270B" transform="translate(0,0)"/>
<path d="" fill="#33250B" transform="translate(0,0)"/>
<path d="" fill="#30260A" transform="translate(0,0)"/>
<path d="" fill="#34260C" transform="translate(0,0)"/>
<path d="" fill="#32260B" transform="translate(0,0)"/>
<path d="" fill="#36290C" transform="translate(0,0)"/>
<path d="" fill="#37270A" transform="translate(0,0)"/>
<path d="" fill="#34280C" transform="translate(0,0)"/>
<path d="" fill="#36290E" transform="translate(0,0)"/>
<path d="" fill="#382A0D" transform="translate(0,0)"/>
<path d="" fill="#352B0D" transform="translate(0,0)"/>
<path d="" fill="#37280C" transform="translate(0,0)"/>
<path d="" fill="#362A0B" transform="translate(0,0)"/>
<path d="" fill="#372A0D" transform="translate(0,0)"/>
<path d="" fill="#382B0C" transform="translate(0,0)"/>
<path d="" fill="#352B0C" transform="translate(0,0)"/>
<path d="" fill="#372A0C" transform="translate(0,0)"/>
<path d="" fill="#362B0D" transform="translate(0,0)"/>
<path d="" fill="#382C0C" transform="translate(0,0)"/>
<path d="" fill="#392C0E" transform="translate(0,0)"/>
<path d="" fill="#392C0D" transform="translate(0,0)"/>
<path d="" fill="#392D0E" transform="translate(0,0)"/>
<path d="" fill="#3B2E0D" transform="translate(0,0)"/>
<path d="" fill="#42330F" transform="translate(0,0)"/>
<path d="" fill="#463211" transform="translate(0,0)"/>
<path d="" fill="#453610" transform="translate(0,0)"/>
<path d="" fill="#463512" transform="translate(0,0)"/>
<path d="" fill="#473510" transform="translate(0,0)"/>
<path d="" fill="#493710" transform="translate(0,0)"/>
<path d="" fill="#4D3B15" transform="translate(0,0)"/>
<path d="" fill="#4F3B14" transform="translate(0,0)"/>
<path d="" fill="#4D3D14" transform="translate(0,0)"/>
<path d="" fill="#503C12" transform="translate(0,0)"/>
<path d="" fill="#513F13" transform="translate(0,0)"/>
<path d="" fill="#533E14" transform="translate(0,0)"/>
<path d="" fill="#4E3D13" transform="translate(0,0)"/>
<path d="" fill="#503F14" transform="translate(0,0)"/>
<path d="" fill="#513D14" transform="translate(0,0)"/>
<path d="" fill="#534012" transform="translate(0,0)"/>
<path d="" fill="#564113" transform="translate(0,0)"/>
<path d="" fill="#513F12" transform="translate(0,0)"/>
<path d="" fill="#533F14" transform="translate(0,0)"/>
<path d="" fill="#544114" transform="translate(0,0)"/>
<path d="" fill="#534114" transform="translate(0,0)"/>
<path d="" fill="#573F16" transform="translate(0,0)"/>
<path d="" fill="#554114" transform="translate(0,0)"/>
<path d="" fill="#544213" transform="translate(0,0)"/>
<path d="" fill="#564114" transform="translate(0,0)"/>
<path d="" fill="#554215" transform="translate(0,0)"/>
<path d="" fill="#574415" transform="translate(0,0)"/>
<path d="" fill="#554215" transform="translate(0,0)"/>
<path d="" fill="#584315" transform="translate(0,0)"/>
<path d="" fill="#554215" transform="translate(0,0)"/>
<path d="" fill="#554113" transform="translate(0,0)"/>
<path d="" fill="#5A4515" transform="translate(0,0)"/>
<path d="" fill="#574514" transform="translate(0,0)"/>
<path d="" fill="#5B4515" transform="translate(0,0)"/>
<path d="" fill="#584515" transform="translate(0,0)"/>
<path d="" fill="#5A4717" transform="translate(0,0)"/>
<path d="" fill="#584414" transform="translate(0,0)"/>
<path d="" fill="#574416" transform="translate(0,0)"/>
<path d="" fill="#5A4414" transform="translate(0,0)"/>
<path d="" fill="#594416" transform="translate(0,0)"/>
<path d="" fill="#584615" transform="translate(0,0)"/>
<path d="" fill="#564315" transform="translate(0,0)"/>
<path d="" fill="#574415" transform="translate(0,0)"/>
<path d="" fill="#5A4416" transform="translate(0,0)"/>
<path d="" fill="#5C4717" transform="translate(0,0)"/>
<path d="" fill="#5B4417" transform="translate(0,0)"/>
<path d="" fill="#594617" transform="translate(0,0)"/>
<path d="" fill="#5B4516" transform="translate(0,0)"/>
<path d="" fill="#5B4615" transform="translate(0,0)"/>
<path d="" fill="#5B4716" transform="translate(0,0)"/>
<path d="" fill="#5A4617" transform="translate(0,0)"/>
<path d="" fill="#594716" transform="translate(0,0)"/>
<path d="" fill="#594616" transform="translate(0,0)"/>
<path d="" fill="#594816" transform="translate(0,0)"/>
<path d="" fill="#5B4616" transform="translate(0,0)"/>
<path d="" fill="#5A4816" transform="translate(0,0)"/>
<path d="" fill="#5A4616" transform="translate(0,0)"/>
<path d="" fill="#594616" transform="translate(0,0)"/>
<path d="" fill="#584616" transform="translate(0,0)"/>
<path d="" fill="#574617" transform="translate(0,0)"/>
<path d="" fill="#574616" transform="translate(0,0)"/>
<path d="" fill="#5A4517" transform="translate(0,0)"/>
<path d="" fill="#554516" transform="translate(0,0)"/>
<path d="" fill="#584416" transform="translate(0,0)"/>
<path d="" fill="#564517" transform="translate(0,0)"/>
<path d="" fill="#574617" transform="translate(0,0)"/>
<path d="" fill="#584517" transform="translate(0,0)"/>
<path d="" fill="#564515" transform="translate(0,0)"/>
<path d="" fill="#574516" transform="translate(0,0)"/>
<path d="" fill="#554417" transform="translate(0,0)"/>
<path d="" fill="#594518" transform="translate(0,0)"/>
<path d="" fill="#32260C" transform="translate(0,0)"/>
<path d="" fill="#543F15" transform="translate(0,0)"/>
<path d="" fill="#594414" transform="translate(0,0)"/>
<path d="" fill="#594616" transform="translate(0,0)"/>
<path d="" fill="#30250C" transform="translate(0,0)"/>
<path d="" fill="#34270C" transform="translate(0,0)"/>
<path d="" fill="#3A2D0D" transform="translate(0,0)"/>
<path d="" fill="#584718" transform="translate(0,0)"/>
<path d="" fill="#614E1E" transform="translate(0,0)"/>
<path d="" fill="#33270D" transform="translate(0,0)"/>
<path d="" fill="#362B0E" transform="translate(0,0)"/>
<path d="" fill="#3A2C0F" transform="translate(0,0)"/>
<path d="" fill="#3B2D0F" transform="translate(0,0)"/>
<path d="" fill="#554015" transform="translate(0,0)"/>
<path d="" fill="#514015" transform="translate(0,0)"/>
<path d="" fill="#594416" transform="translate(0,0)"/>
<path d="" fill="#534116" transform="translate(0,0)"/>
<path d="" fill="#604D18" transform="translate(0,0)"/>
<path d="" fill="#604C1B" transform="translate(0,0)"/>
<path d="" fill="#846722" transform="translate(0,0)"/>
<path d="" fill="#957729" transform="translate(0,0)"/>
<path d="" fill="#664F1B" transform="translate(0,0)"/>
<path d="" fill="#987B30" transform="translate(0,0)"/>
<path d="" fill="#554315" transform="translate(0,0)"/>
<path d="" fill="#8C6F29" transform="translate(0,0)"/>
</svg>
